<?xml version="1.0" standalone="no"?><!DOCTYPE svg PUBLIC "-//W3C//DTD SVG 1.1//EN" "http://www.w3.org/Graphics/SVG/1.1/DTD/svg11.dtd"><svg t="1747966394271" class="icon" viewBox="0 0 1082 1024" version="1.1" xmlns="http://www.w3.org/2000/svg" p-id="1066" xmlns:xlink="http://www.w3.org/1999/xlink" width="211.328125" height="200"><path d="M164.42534 189.774727L63.603916 309.838641l-49.892202-61.414651L0 235.749297l129.857995-92.179588L29.151795 34.567346l45.283222-34.567346 976.98841 976.98841-44.591875 47.01159-117.874649-144.721953c-86.418364 41.250366-151.289749 82.846405-222.383256 103.702036-196.918645 58.534038-388.076066-26.616856-491.778103-177.445707A455.367166 455.367166 0 0 1 184.359176 276.538764c21.777428-29.843142 43.093957-55.192528-19.933836-86.764037z" p-id="1067" fill="#1296db"></path><path d="M386.232474 125.249015c158.433667-71.439181 368.718353-25.234162 492.008552 108.541465 125.479464 136.195342 162.927422 338.529538 90.566446 470.1159z" fill="#1296db" opacity=".52" p-id="1068"></path><path d="M1082.30359 258.909418l-39.637223 35.258693L797.353438 53.464161l43.785304-36.871835z" p-id="1069" fill="#1296db"></path></svg>